<svg aria-hidden="true" style="position: absolute; width: 0; height: 0; overflow: hidden;" version="1.1" xmlns="http://www.w3.org/2000/svg" xmlns:xlink="http://www.w3.org/1999/xlink">
	<defs>
		<symbol id="icon-rectangle" viewBox="0 0 50 50">
			<title>rectangle</title>
			<rect width="50" height="50" x="0" y="0"/>
		</symbol>
		<symbol id="icon-circle" viewBox="0 0 50 50">
			<title>circle</title>
			<circle cx="25" cy="25" r="25"/>
		</symbol>
		<symbol id="icon-cake" viewBox="0 0 24 24">
			<title>cake</title>
			<path d="M18 9c1.641 0 3 1.359 3 3v1.547c0 1.078-0.891 1.969-1.969 1.969-0.516 0-0.984-0.188-1.359-0.563l-2.156-2.156-2.156 2.156c-0.75 0.75-2.016 0.75-2.766 0l-2.109-2.156-2.156 2.156c-0.375 0.375-0.844 0.563-1.359 0.563-1.078 0-1.969-0.891-1.969-1.969v-1.547c0-1.641 1.359-3 3-3h5.016v-2.016h1.969v2.016h5.016zM16.594 15.984c0.656 0.656 1.5 1.031 2.438 1.031 0.75 0 1.406-0.234 1.969-0.609v4.594c0 0.563-0.422 0.984-0.984 0.984h-16.031c-0.563 0-0.984-0.422-0.984-0.984v-4.594c0.563 0.375 1.219 0.609 1.969 0.609 0.938 0 1.781-0.375 2.438-1.031l1.078-1.078 1.078 1.078c1.313 1.313 3.563 1.313 4.875 0l1.078-1.078zM12 6c-1.078 0-2.016-0.938-2.016-2.016 0-0.375 0.141-0.75 0.328-1.031l1.688-2.953 1.688 2.953c0.188 0.281 0.328 0.656 0.328 1.031 0 1.078-0.891 2.016-2.016 2.016z"></path>
		</symbol>
		<symbol id="icon-airport_shuttle" viewBox="0 0 24 24">
			<title>airport_shuttle</title>
			<path d="M15 11.016h5.016l-4.031-4.031h-0.984v4.031zM17.484 17.484c0.844 0 1.5-0.656 1.5-1.5s-0.656-1.5-1.5-1.5-1.5 0.656-1.5 1.5 0.656 1.5 1.5 1.5zM12.984 11.016v-4.031h-3.984v4.031h3.984zM6 17.484c0.844 0 1.5-0.656 1.5-1.5s-0.656-1.5-1.5-1.5-1.5 0.656-1.5 1.5 0.656 1.5 1.5 1.5zM3 11.016h3.984v-4.031h-3.984v4.031zM17.016 5.016l6 6v4.969h-2.531c0 1.641-1.359 3-3 3s-3-1.359-3-3h-5.484c0 1.641-1.359 3-3 3s-3-1.359-3-3h-2.016v-9c0-1.125 0.938-1.969 2.016-1.969h14.016z"></path>
		</symbol>
		<symbol id="icon-music_note" viewBox="0 0 24 24">
			<title>music_note</title>
			<path d="M12 3h6v3.984h-3.984v10.031c0 2.203-1.828 3.984-4.031 3.984s-3.984-1.781-3.984-3.984 1.781-4.031 3.984-4.031c0.75 0 1.406 0.234 2.016 0.563v-10.547z"></path>
		</symbol>
	</defs>
</svg>
